<svg xmlns="http://www.w3.org/2000/svg" viewBox="0 0 64 64">
  <g>
    <!-- Shield background -->
    <path d="M32 4C32 4 8 10 8 24c0 18.5 20.5 32 24 32s24-13.5 24-32C56 10 32 4 32 4z" fill="#222"/>
    <!-- Blue left -->
    <path d="M32 8C32 8 12 13 12 24c0 15.5 16.5 27 20 27s20-11.5 20-27c0-11-20-16-20-16z" fill="#2196f3"/>
    <!-- Red right -->
    <path d="M32 8C32 8 52 13 52 24c0 15.5-16.5 27-20 27V8z" fill="#e53935" opacity=".8"/>
    <!-- Letter A -->
    <text x="32" y="40" text-anchor="middle" font-family="Arial Black,Arial,sans-serif" font-size="28" fill="#fff" font-weight="bold">A</text>
  </g>
</svg>
